<?xml version="1.0" encoding="UTF-8"?>
<svg id="Layer_2" data-name="Layer 2" xmlns="http://www.w3.org/2000/svg" viewBox="0 0 877.15 228.11">
  <defs>
    <style>
      .cls-1 {
        fill: #afaea6;
      }

      .cls-2 {
        fill: #4da0ce;
      }
    </style>
  </defs>
  <g id="Layer_1-2" data-name="Layer 1">
    <g>
      <g>
        <path class="cls-1" d="M144.92,83.52c-6.97,2-11.23,3.42-15.59,7.64-1.8,3.12,4.08,10.32,5.99,9.71,2.55-1.07,4.96-2.47,7.45-3.67,7.73-3.8,3.07,9.58,2.24,15.43-1.63,10.57-1.27,21.68,2.82,32.06,0,0,5.22,15.41,7.54,16.07s8.2-2.77,8.42-5.32-5.45-5.97-8-17.61c-2.71-14.9,.23-23.99,3.15-39.69,.46-1.99,.58-3.06,1.03-4.25,.34-.91,1.03-1.66,1.92-2.05,3.81-1.68,6.84-2.52,12.02-3.27,9.31-.97,53.56-12.14,35.36,8.73-9.67,12.47-30.4,19.76-35.06,34.8-3.16,28.73,66.92,8.43,66.92,8.43,0,0-6.63,7.87-6.72,12.95-1.23,7.35,8.46,6.57,11.24,2.88,4.05-5.44,7.71-12.31,13.55-15.91,12.48-1.23,24.33-2.83,37.11-4.16,3.67-.38,3.44-.25,4.66,1.55,7.43,10.99,13.5,16.53,26.3,11.83,.21,6.97-.51,19.23,8.26,19.85,2.87,.2,13.08-4.93,11.85-6.83-5.06-7.88-5.96-17.59-5.36-25.69,1.74-10.17,2.79-15.23,5.24-28.65,7.27,21.41,25.38,53.17,40.51,52.86,19.73-1.67,20.85-26.4,18.59-41.96-1.39-10.55-4.46-21.63-3.12-32.23,1.62-10.24,5.19-11.25,4.76-13.29-.42-2.04-18.94-6.11-18.13,1.41,1.19,22.81,11.03,52.72,2.67,69.3-5.79,9.64-15.41-2.61-22.48-12.29-11.48-14.94-14.17-36.79-18.54-54.32-8.75-4.18-13.73,15.16-13.73,15.16l-9.92,48.03s-10.27-1.87-13.09-5.68c4.36-.61,6.01-.35,7.55-4.14,2.26-5.54,3.85-4.53-8.19-4.23-6.16,.15-8.71-19.95-10.71-25.32-1.11-4.66-9.73-37.87-11.95-38.43-3.21-.67-8.42-.29-9.63,2.01-4.55,15.21-12.67,29.24-18.98,43.87-4.93,7.8-8.96,16.16-15.07,23.16-6.53,.24-9.53,1.01-18.31,2.12-10.5,1.77-37.74,7.36-39.95-.51-2.81-12.11,46.52-33.63,38.43-52.84-10.17-16.13-43.17-6.64-59.01-3.86l-24.02,6.33Zm150.77,44.35c-4.18-.07-9.35-.38-13.67-.34-5.47,.05-8.41,.08-12.6,0-3.19-.06-3.71-.91-2.3-3.83,4.85-9.68,10.16-19.19,14.54-29.08,1.36-3.06,1.79-3.93,2.83-7.62,.24-.51,.94-.51,1.12-.08,4.99,12.17,6.22,25.74,10.55,38.17,.29,1.12,1.12,2.77-.47,2.77Z"/>
        <path class="cls-1" d="M569.06,128.75c.09-.14,.18-.28,.25-.42,.02-.04,.04-.07,.05-.11,.09-.16,.17-.32,.24-.47,0-.01,.01-.03,.02-.04,.08-.18,.16-.35,.22-.53,0-.02,.01-.04,.02-.06,.06-.17,.12-.34,.17-.5,0,0,0,0,0,0,.05-.18,.09-.37,.13-.55,0,0,0-.01,0-.02,.03-.18,.06-.35,.07-.53,0-.03,0-.06,0-.09,.01-.15,.02-.3,.02-.45,0-.04,0-.08,0-.12,0-.14-.01-.28-.03-.42,0-.04-.02-.08-.02-.12-.02-.14-.04-.27-.07-.41-.01-.06-.03-.12-.05-.18-.03-.12-.06-.23-.1-.35-.03-.08-.06-.16-.09-.23-.04-.09-.07-.19-.11-.28-.04-.09-.09-.18-.14-.27-.04-.08-.08-.16-.12-.24-.07-.12-.15-.24-.23-.36-.03-.05-.06-.1-.09-.15-.09-.13-.19-.25-.28-.38-.03-.04-.06-.08-.09-.12-.13-.16-.27-.32-.42-.48,0,0,0-.01-.02-.02-3.04-3.24-9.8-6.17-20.54-9.06-.29-.08-.57-.15-.87-.23-.96-.25-1.94-.5-2.95-.76-.04-.01-.08-.02-.13-.03-.45-.11-.91-.22-1.37-.33-.15-.04-.29-.07-.44-.11-.61-.15-1.24-.29-1.87-.44,4.28-2.61,7.47-5.1,11.27-7.49,7.02-4.42,13.88-8.91,19.62-15.12l.12-.12c5.25-4.74,7.95-10.71,7.6-15.99,0-.02,0-.04,0-.06,0-.06-.01-.13-.02-.19-.48-5.71-4.54-10.57-12.76-12.14-.38-.07-.76-.15-1.16-.2,0,0,0,0,0,0-1.67,.08-3.33,.2-4.99,.35-3.49,.31-6.96,.76-10.41,1.32-1.98,.32-3.96,.67-5.93,1.04-.91,.17-1.82,.35-2.73,.53-9.63,1.94-19.19,4.38-28.85,6.35-6.53,1.21-13.17,3.93-19.83,5.18-4.77,.9-9.56,1.04-14.33-.66-1.11-.32-1.98-.25-2.67,.13-.77,.42-1.31,1.22-1.66,2.33-2.33,5.35-5.93,9.71-10.18,13.5-7.12,6.35-16.06,11.11-23.93,16.23-.42-2.98-.53-5.9-.44-8.78,.16-4.83,2.04-13.11,1.76-14.36-.11-.48-.49-.78-.74-1.14-2.36-3.42-5.01-5.06-7.27-5.04-.03,0-.05,0-.08,0-.06,0-.13,.01-.19,.02-2.43,.17-4.38,2.29-4.95,6.22l-3.99,29.46c-.77,10.2-1.83,19.53-3.08,29.66,0,0-2.23,12.58-1.57,14.69,1.3,4.12,16.92,5.32,19.52-1.68-.06-8.4-2.15-19.33-2.15-19.33,.24-.28,.48-.56,.73-.83,11.18,5.56,18.83,9.86,24.76,13.05,6.57,3.53,11.03,5.69,15.85,6.66,.05,.01,.11,.02,.16,.03,.22,.04,.44,.09,.66,.12,.21,.04,.41,.07,.62,.1,.07,.01,.14,.02,.21,.03,4.66,.67,9.9,.31,17.77-.93,6.03-.95,12.4-2.17,22.47-4.07,3.68-.69,.2-6.09-1.64-8.49-2.99-3.88-5.15-7.16-4.46-14.09,0,0,0,0,0-.01,0,0,0,0,0,0,.5-1.1,1.37-1.66,2.44-1.93,1.33-.34,2.61-.54,4.98-.65l9.26-.28c9.08-.23,25.07,.69,22.67,6.18-6.78,14.84-31.56,25.63-47.53,32.34-.57,.24-.91,.85-.79,1.45,.47,2.24,2.07,3.66,3.79,3.66,2.81,0,5.72-.65,8.18-1.45,0,0,0,0,0,0,33.03-13.5,44.27-23.33,52.72-36.7Zm-89.1,11.71c-2.66-.98-5.16-2.21-7.36-3.68-8.79-5.71-19.23-9.63-27.51-16.03-.03-.02-.05-.04-.08-.06-1.19-.92-2.33-1.89-3.41-2.93,7.17-7.35,15.05-13.06,23.08-19.11,12.6-10,23.16-14.4,37.71-18.36,.39,3.24,.53,6.49,.52,9.74-.02,7.79-.92,15.58-1.51,23.32-.3,3.87-.51,7.74-.5,11.58,.01,5.77,.53,11.51,2.07,17.2-4.24,1.08-9,1.24-13.7,.63-3.19-.42-6.34-1.2-9.3-2.3Zm65.91-45.84c-10.01,6.56-18.2,14.83-30.94,15.88-.38,.03-.68-.32-.61-.69,.64-3.32,.98-6.3,1.15-8.97,.49-7.9-.56-13.19-.18-16.96,.32-3.2,1.67-5.31,5.87-7.01,3.47-1.41,6.19-2.56,14.79-4.53,4.88-.78,8.55-1.22,10.57-1.42,6.93-.71,10.42-.77,16.82,.46,3.55,1.45,3.3,4.22,1.23,7.33-4.12,6.2-14.81,12.85-18.7,15.93Z"/>
        <path class="cls-1" d="M721.29,150.15c3.26-.97,5.38-2.79,3.83-6.34-.01-.02-.02-.05-.03-.07-1.07-1.55-2.19-1.78-3.69-2.2-.06-.02-.12-.03-.19-.05-.13-.03-.25-.07-.38-.09-.06-.01-.13-.02-.19-.04-.13-.03-.26-.05-.39-.08-.11-.02-.22-.03-.33-.05-.09-.01-.17-.03-.26-.04-.09-.01-.19-.02-.28-.03-.11-.01-.21-.03-.32-.04-.02,0-.03,0-.05,0-3.95-.41-6.31-.86-8.09-5.95,1.25-.07,2.38-.12,3.31-.36,1.55-.39,2.43-.33,3.12-1.93,.15-.33,.75-1.64,.86-2.05,.67-2,1.97-3.94-.63-3.82-5.72,.25-5.33,.43-7.78,.01-.11,0-.22,0-.33-.01-.53-.05-1.05-.27-1.56-.65-1.5-1.13-2.9-3.65-4.21-7.05-4.62-12.02-8.07-34.98-10.81-46.23-.51-2.09-.99-3.78-1.45-4.91-1.33-3.03-3.11-5.93-5.71-5.93,0,0-3.04-.12-5.77,.49-1.35,.3-2.34,1.53-3.25,3.22-.77,2.59-1.62,5.15-2.54,7.69,0,0,0,.01,0,.02-1.03,2.86-2.16,5.7-3.35,8.52-6.21,14.7-14.28,28.83-21.53,42.86-2.79,5.32-3.95,7.06-7.83,12.48l-10.37,12.51s-1.39,1.73-1.16,3.95,4.75,3.23,7.37,3.64c2,.32,2.7-.37,3.52-1.32,0,0,.5-.58,.5-.58,1.05-1.25,1.23-1.54,2.26-2.67,3.52-3.85,6.3-8.34,9.64-12.34,.65-.77,2.13-1.2,3.14-1.2,4.38,.02,10.81-.47,14.69-1.1,0,0,18.3-2.32,19.81-2.53s2.96-.29,3.59,0c1.02,.46,1.92,1.66,2.82,3.18,2.06,3.47,4.29,8.39,8.09,10.73,1.37,.84,2.38,1.29,3.2,1.36,1.98,.18,3.84,.22,6.59,.03s6.13-1.05,6.13-1.05Zm-41.14-63.18c.23-.59,.76-.78,1.02-.08,4.21,10.64,5.76,22.22,8.9,33.23,.61,2.43,1.17,3.78,1.48,6.61,.02,.2,.24,1.22-.51,1.32-5.24,.41-10.23,.17-15.34,.17-2.21,0-3.96,0-6.33-.17l-5.17-.36c-1.97-.21-3.19-1.06-1.77-3.69,.08-.16,.18-.32,.28-.49,2.52-4.79,4.97-9.63,7.39-14.48,2.42-4.85,4.8-9.72,7.18-14.57l2.87-7.49Z"/>
        <path class="cls-1" d="M841.44,87.46c4.23-.98,14.52-2.81,21.75-3.45l10.24-.79c2.87,0,5.44-7.34,2.24-7.63-18.13-.51-16.94-.33-42.04,1.71,0,0-13.97,1.73-20.04,4.15-4.18,2.56-2.33,15.39-2.08,22.53,.1,2.92,.31,10.4-.61,17.2s-.58,11.45-.58,19.34c0,10.62,1.33,13.9,1.33,13.9,1.9,5.37,3.84,7.27,6.25,8.66s3.82,2.79,8.9,2.79c17.94-.46,40.4-13.55,40.4-13.55l3.33-2.08c2.95-1.91-6.16-7-8.56-5.61-9.73,3.91-9.23,3.99-25.36,8.27-6.98,2.2-13.89,1.58-14.85-6.03-1.05-7.88-.75-7.95-1.11-12.14-.31-3.61-.31-6.95,.17-10.14s1.94-4.38,4.9-5.4c4.45-1.54,8.49-2.6,13.3-3.41,11.84-1.33,21.87-2,23.55-3.7,1.43-1.24,1.89-3.92,1.92-4.07,.08-.3,.47-2.13,.51-2.4,.35-2.61-.13-2.33-3.27-2.17-4.72,.24-9.96,.81-12.36,1.07-3.79,.52-5.33,.55-9.14,1.09s-5.43,.63-13.02,1.85c-3.59,.67-3.18-.86-3.59-2.87-.06-.29-.09-.61-.1-.96-.02-1.15-.07-2.16-.1-3.07-.02-.45-.04-.88-.05-1.28-.02-.6-.03-1.14-.02-1.64,0-.33,.02-.64,.05-.93s.06-.56,.12-.82c.5-2.43,1.39-4.01,7.15-5.68,0,0,6.58-1.79,10.81-2.77Z"/>
        <path class="cls-1" d="M734.26,86.9c.39,5.06,.83,9.94,.79,14.85-.03,3.26-.13,6.49-.27,9.73-.06,1.41-.13,2.83-.21,4.24-.02,.42-.04,.84-.07,1.26-.33,5.83-.75,11.69-1.07,17.67-.94,17.97,9.54,19.82,19.28,17.44,0,0,0,0,.01,0,4.31-1.29,6.18-2.58,9.15-4.12,2.16-1.12,4.28-2.33,6.35-3.61,1.93-1.2,3.83-2.48,5.67-3.82,.13-.1,.26-.19,.4-.29,.4-.29,.81-.58,1.2-.88,7.13-5.38,13.55-11.73,19.1-18.71,1.38-1.74,2.72-3.51,3.99-5.32,2.78-4.3,4.39-8.63,5.02-12.83,1.47-9.88-2.61-19-10.3-25.19-4.43-3.56-10.04-6.16-16.49-7.36-5.86-1.41-11.55-1.27-21.83-.14,0,0-10.59,1.79-14.41,2.86s-7.64,2.12-9.36,2.65c-3.09,.95-4.61,1.32-7.47,2.2-.3,.04-2.23,.74-2.49,.82,0,0-.02,0-.03,0-.11,.03-3.04,.82-3.71,2.78s.3,7.15,2.5,9.14c1.91,2.12,14.24-3.37,14.24-3.37Zm54.59-.32c2.22,2.11,2.83,5.82,2.83,5.82,1.33,4.71,.95,9.92-.87,14.23-3.42,8.09-12.68,16.46-21.14,22.86-6.64,5.03-13.14,8.66-17.14,9.42-3.81,.7-6.23-2.38-7.11-9.45-.83-12.13,1.75-23.52,1.65-35.34-.02-2.73-.12-6.81-.67-9.41,5.08-2.59,12.52-4.04,18.87-4.04,4.66,0,8.62,.12,12.05,.82,7.09,1.44,8.83,2.54,11.53,5.1Z"/>
        <path class="cls-1" d="M599.44,132.54c-2.35-2.29-2.8-7.03-2.35-12.99,.69-9.08,3.37-20.73,4.09-29.36,.39-4.67,.25-6.03-.28-9.08-.45-1.65-.81-3.47-1.06-4.18-.71-2.05-1.26-6.13-2.75-6.13s-5.69,1.51-8.06,2.24-4.63,1.1-5.7,2.83c-1.28,2.07-.19,5.52,.55,8.31,.46,1.73,1.75,5.65,2.23,10.71,.62,5.03-.25,7.87-1.12,13.15-1.95,11.8-4.94,23.74,2.93,33.64,.13,.21,.28,.4,.42,.6,1.55,2.19,3.61,3.71,5.95,4.42s3.56,.8,8.01,.58c9.04-.88,14.66-3.57,18.5-5.45,2.83-1.38,12.67-6.92,13.11-7.25,2.76-2.04,4.67-3.12,6.36-4.49,1.57-1.28,1.82-1.34,2.76-2.69,1.12-1.45,.03-5.75-1.33-5.45-2.2,.43-5.47,1.17-7.55,1.77-.14,.04-.29,.09-.43,.13-.22,.07-.44,.13-.66,.2-.02,0-.04,.01-.05,.02-1.28,.41-2.54,.89-3.79,1.41-.4,.17-.79,.34-1.19,.51-.17,.07-.34,.15-.5,.22-.64,.28-3.68,1.7-4.31,2-3.87,1.81-3.89,1.88-8.1,3.47-.58,.22-4.07,1.4-6.61,2.13s-6.7,1-9.05-1.29Z"/>
      </g>
      <g>
        <path class="cls-1" d="M165.68,164.74c-6.45,1.74-37.31,13.73-50.05,16.83,.8,3.97,1.62,7.49,2.16,10.79,10.96-3.83,37.34-16.04,48.41-21.3,1.28-.44,1.09-6.82-.52-6.32Z"/>
        <path class="cls-1" d="M94,187.72c-26.68,6.1-63.63-6.53-65.66-35.41-1.71-29.34,17.91-55.45,42.24-74.1,5.86-4.49,11.83-8.34,17.61-11.35,16.53-7.45,35.17-14.71,54.55-14.09,3.76,.03,11-9.7,6.61-10.59-23.05-1.82-44.98,.99-66.04,7.4-5.39,2.02-11.15,4.57-16.87,7.64-10.16,5.44-22.51,13.31-30.01,21.77C-15.23,133.69-3.59,169.6,20.21,190.68c9.75,8.71,22.19,14.53,40.16,13.69,15.63-.63,25.61-2.2,37.65-5.46-1.32-3.86-2.33-7.02-3.63-11.24-.13,.02-.27,.04-.4,.05Z"/>
      </g>
    </g>
    <g>
      <path class="cls-2" d="M89.27,70.81c-5.77,3.02-11.75,6.86-17.61,11.35,10.64,56.65,31.69,134.23,43.96,145.22,.99,1.38,3.18,.68,3.19-1.02,1.13-16.86-15.14-92.61-29.55-155.55Z"/>
      <path class="cls-2" d="M52.52,7.92c.67,3.12,2.57,5.65,5.08,7.21,.11,.07,.23,.13,.35,.2-.11,.91-.09,1.84,.11,2.78,.33,1.51,1.04,2.84,2.01,3.91-.45,1.37-.55,2.88-.23,4.39,.33,1.51,1.04,2.84,2.01,3.91-.45,1.37-.55,2.88-.23,4.39,.33,1.51,1.04,2.84,2.01,3.91,.06,.07,.13,.13,.19,.19-.34,.1-.69,.19-1.03,.3-.22-.13-.48-.55-.64-.5-3.18,1.01-5.69,1.99-8.78,4.37-1.58,1,1.86,4.29,2.92,3.57,2.93-1.79,4.86-2.29,7.61-2.64,.75,4.02,.89,5.53,1.82,10.34,5.72-3.06,11.23-5.48,16.62-7.5-.92-3.15-1.06-3.78-1.99-6.85,0,0,3.43-1.64,7.76-1.72,1.31,.14,2.38-4.44,1.13-4.44-4.49-.12-6.38-.07-9.84,.96-.16,.04-.27,.81-.31,.81-.08,.01-.15,.02-.23,.03-.3,.04-.61,.1-.92,.14,.02-.05,.04-.1,.06-.15,.45-1.37,.55-2.88,.23-4.39-.33-1.51-1.04-2.84-2.01-3.91,.45-1.37,.55-2.88,.23-4.39-.33-1.51-1.04-2.84-2.01-3.91,.45-1.37,.55-2.88,.23-4.39-.25-1.18-.75-2.25-1.42-3.17,1.44-2.38,2.02-5.28,1.39-8.21-1.28-6.49-23.34-2.06-22.11,4.76Z"/>
    </g>
  </g>
</svg>